<?xml version="1.0" encoding="UTF-8" standalone="no"?>
<!-- Created with Inkscape (http://www.inkscape.org/) -->

<svg
   xmlns:dc="http://purl.org/dc/elements/1.1/"
   xmlns:cc="http://creativecommons.org/ns#"
   xmlns:rdf="http://www.w3.org/1999/02/22-rdf-syntax-ns#"
   xmlns:svg="http://www.w3.org/2000/svg"
   xmlns="http://www.w3.org/2000/svg"
   xmlns:sodipodi="http://sodipodi.sourceforge.net/DTD/sodipodi-0.dtd"
   xmlns:inkscape="http://www.inkscape.org/namespaces/inkscape"
   width="298.31323"
   height="76.145012"
   id="svg2"
   version="1.1"
   inkscape:version="0.48.5 r10040"
   sodipodi:docname="blue-burst-encapsule.io-logo.svg">
  <title
     id="title3355">Encapsule.io Logo</title>
  <defs
     id="defs4" />
  <sodipodi:namedview
     id="base"
     pagecolor="#ffffff"
     bordercolor="#666666"
     borderopacity="1.0"
     inkscape:pageopacity="0"
     inkscape:pageshadow="2"
     inkscape:zoom="1.24"
     inkscape:cx="-48.89653"
     inkscape:cy="129.91343"
     inkscape:document-units="px"
     inkscape:current-layer="layer1"
     showgrid="false"
     inkscape:window-width="1433"
     inkscape:window-height="945"
     inkscape:window-x="2079"
     inkscape:window-y="62"
     inkscape:window-maximized="0"
     fit-margin-top="0"
     fit-margin-left="0"
     fit-margin-right="0"
     fit-margin-bottom="0" />
  <metadata
     id="metadata7">
    <rdf:RDF>
      <cc:Work
         rdf:about="">
        <dc:format>image/svg+xml</dc:format>
        <dc:type
           rdf:resource="http://purl.org/dc/dcmitype/StillImage" />
        <dc:title>Encapsule.io Logo</dc:title>
        <cc:license
           rdf:resource="" />
        <dc:creator>
          <cc:Agent>
            <dc:title>Encapsule.io</dc:title>
          </cc:Agent>
        </dc:creator>
        <dc:rights>
          <cc:Agent>
            <dc:title>All Rights Reserved</dc:title>
          </cc:Agent>
        </dc:rights>
        <dc:publisher>
          <cc:Agent>
            <dc:title>Encapsule.io</dc:title>
          </cc:Agent>
        </dc:publisher>
        <dc:contributor>
          <cc:Agent>
            <dc:title>https://encapsule.io</dc:title>
          </cc:Agent>
        </dc:contributor>
        <dc:description>The font is Nimbus Sans L</dc:description>
      </cc:Work>
    </rdf:RDF>
  </metadata>
  <g
     inkscape:label="Layer 1"
     inkscape:groupmode="layer"
     id="layer1"
     transform="translate(-172.27472,-48.964617)">
    <path
       sodipodi:type="star"
       style="fill:#162d50"
       id="path3219"
       sodipodi:sides="6"
       sodipodi:cx="141.23808"
       sodipodi:cy="234.01212"
       sodipodi:r1="39.071796"
       sodipodi:r2="35.995205"
       sodipodi:arg1="1.041871"
       sodipodi:arg2="1.5654698"
       inkscape:flatsided="true"
       inkscape:rounded="-1.35"
       inkscape:randomized="0"
       d="m 160.95394,267.74475 c 45.53905,-26.61641 -84.891252,-25.92166 -39.07124,0.20811 45.82,26.12977 -19.99682,-86.4788 -19.71586,-33.73263 0.28096,52.74618 64.89444,-60.55715 19.35539,-33.94074 -45.539053,26.6164 84.89125,25.92165 39.07124,-0.20812 -45.82001,-26.12977 19.99681,86.47881 19.71586,33.73263 -0.28096,-52.74618 -64.89444,60.55715 -19.35539,33.94075 z"
       transform="translate(70.108774,-147.11177)" />
    <path
       sodipodi:type="star"
       style="fill:#2c5aa0"
       id="path3219-5"
       sodipodi:sides="6"
       sodipodi:cx="141.23808"
       sodipodi:cy="234.01212"
       sodipodi:r1="35.998672"
       sodipodi:r2="35.995205"
       sodipodi:arg1="1.0507704"
       sodipodi:arg2="1.5743692"
       inkscape:flatsided="true"
       inkscape:rounded="-1.34"
       inkscape:randomized="0"
       d="m 159.12592,265.25199 c 41.86143,-23.9697 -77.687529,-24.39683 -35.99844,-0.12862 41.68908,24.26822 -17.71549,-79.47779 -17.88784,-31.23987 -0.17235,48.23791 59.97204,-55.08096 18.11061,-31.11126 -41.861434,23.9697 77.68752,24.39683 35.99844,0.12862 -41.68908,-24.26822 17.71549,79.47779 17.88784,31.23987 0.17234,-48.23791 -59.97204,55.08096 -18.11061,31.11126 z"
       transform="translate(70.108774,-147.11177)" />
    <path
       sodipodi:type="star"
       style="fill:#87aade"
       id="path3223"
       sodipodi:sides="6"
       sodipodi:cx="73.388412"
       sodipodi:cy="362.78802"
       sodipodi:r1="33.571056"
       sodipodi:r2="18.054111"
       sodipodi:arg1="2.6388859"
       sodipodi:arg2="3.1624847"
       inkscape:flatsided="true"
       inkscape:rounded="-1.37"
       inkscape:randomized="0"
       d="m 43.970711,378.96253 c 22.159076,40.30225 24.524552,-72.90518 0.701317,-33.56373 -23.823236,39.34145 75.400012,-15.2137 29.417701,-16.17451 -45.982311,-0.9608 50.875461,57.69148 28.716381,17.38923 -22.159072,-40.30225 -24.524548,72.90517 -0.70131,33.56373 23.82323,-39.34145 -75.400014,15.2137 -29.417704,16.17451 45.982314,0.9608 -50.87546,-57.69148 -28.716385,-17.38923 z"
       transform="translate(137.95844,-275.88767)" />
    <path
       sodipodi:type="star"
       style="fill:#d7e3f4"
       id="path3225"
       sodipodi:sides="6"
       sodipodi:cx="75.77977"
       sodipodi:cy="246.03883"
       sodipodi:r1="12.122302"
       sodipodi:r2="19.756824"
       sodipodi:arg1="-2.0712372"
       sodipodi:arg2="-1.5476385"
       inkscape:flatsided="true"
       inkscape:rounded="4.35"
       inkscape:randomized="0"
       d="m 69.963339,235.40308 c 46.265541,-25.30148 -32.92544,-27.1357 12.119052,0.2807 45.044489,27.4164 7.037484,-42.08212 5.816431,10.63576 -1.221054,52.71787 39.962928,-14.94642 -6.302621,10.35505 -46.265546,25.30148 32.925439,27.1357 -12.119052,-0.2807 -45.044492,-27.4164 -7.037484,42.08212 -5.816431,-10.63576 1.221054,-52.71787 -39.962925,14.94642 6.302621,-10.35505 z"
       transform="translate(135.56709,-159.13849)" />
    <text
       xml:space="preserve"
       style="font-size:37.88803482px;font-style:normal;font-variant:normal;font-weight:normal;font-stretch:normal;text-align:start;line-height:125%;letter-spacing:0px;word-spacing:0px;writing-mode:lr-tb;text-anchor:start;fill:#162d50;fill-opacity:1;stroke:none;font-family:Nimbus Sans L;-inkscape-font-specification:Nimbus Sans L"
       x="255.23886"
       y="116.85004"
       id="text3284"
       sodipodi:linespacing="125%"><tspan
         sodipodi:role="line"
         id="tspan3286"
         x="255.23886"
         y="116.85004">Encapsule.io</tspan></text>
  </g>
</svg>
