<?xml version="1.0" encoding="UTF-8" standalone="no"?>
<svg
   xmlns:dc="http://purl.org/dc/elements/1.1/"
   xmlns:cc="http://creativecommons.org/ns#"
   xmlns:rdf="http://www.w3.org/1999/02/22-rdf-syntax-ns#"
   xmlns:svg="http://www.w3.org/2000/svg"
   xmlns="http://www.w3.org/2000/svg"
   xmlns:sodipodi="http://sodipodi.sourceforge.net/DTD/sodipodi-0.dtd"
   xmlns:inkscape="http://www.inkscape.org/namespaces/inkscape"
   version="1.0"
   width="287.49872pt"
   height="235.83775pt"
   viewBox="0 0 287.49872 235.83775"
   preserveAspectRatio="xMidYMid meet"
   id="svg3402"
   inkscape:version="0.91 r13725"
   sodipodi:docname="quantcast-logo.svg">
  <defs
     id="defs3412" />
  <sodipodi:namedview
     pagecolor="#ffffff"
     bordercolor="#666666"
     borderopacity="1"
     objecttolerance="10"
     gridtolerance="10"
     guidetolerance="10"
     inkscape:pageopacity="0"
     inkscape:pageshadow="2"
     inkscape:window-width="1440"
     inkscape:window-height="852"
     id="namedview3410"
     showgrid="false"
     fit-margin-top="0"
     fit-margin-left="0"
     fit-margin-right="0"
     fit-margin-bottom="0"
     inkscape:zoom="1.2195556"
     inkscape:cx="180.62338"
     inkscape:cy="147.5"
     inkscape:window-x="0"
     inkscape:window-y="22"
     inkscape:window-maximized="1"
     inkscape:current-layer="svg3402" />
  <metadata
     id="metadata3404">
Created by potrace 1.12, written by Peter Selinger 2001-2015
<rdf:RDF>
  <cc:Work
     rdf:about="">
    <dc:format>image/svg+xml</dc:format>
    <dc:type
       rdf:resource="http://purl.org/dc/dcmitype/StillImage" />
    <dc:title></dc:title>
  </cc:Work>
</rdf:RDF>
</metadata>
  <g
     transform="matrix(0.1,0,0,-0.1,-105.5013,342.83775)"
     id="g3406"
     style="fill:#000000;stroke:none">
    <path
       d="m 2027,3414 c -333,-60 -636,-275 -812,-574 -264,-450 -196,-1024 165,-1404 175,-184 396,-304 649,-351 71,-13 215,-15 992,-15 l 909,0 0,90 0,90 -526,2 -526,3 58,40 c 77,53 218,193 277,276 66,93 143,259 174,376 24,90 27,114 27,293 1,169 -2,206 -21,276 -127,475 -492,817 -960,899 -106,18 -302,18 -406,-1 z"
       id="path3408"
       inkscape:connector-curvature="0" />
  </g>
</svg>
