<?xml version="1.0" encoding="UTF-8" standalone="no"?>
<!-- Created with Inkscape (http://www.inkscape.org/) -->

<svg
   xmlns:dc="http://purl.org/dc/elements/1.1/"
   xmlns:cc="http://creativecommons.org/ns#"
   xmlns:rdf="http://www.w3.org/1999/02/22-rdf-syntax-ns#"
   xmlns:svg="http://www.w3.org/2000/svg"
   xmlns="http://www.w3.org/2000/svg"
   xmlns:sodipodi="http://sodipodi.sourceforge.net/DTD/sodipodi-0.dtd"
   xmlns:inkscape="http://www.inkscape.org/namespaces/inkscape"
   width="500"
   height="500"
   id="svg2"
   version="1.1"
   inkscape:version="0.48.5 r10040"
   sodipodi:docname="encapsule-arccore.svg">
  <defs
     id="defs4" />
  <sodipodi:namedview
     id="base"
     pagecolor="#ffffff"
     bordercolor="#666666"
     borderopacity="1.0"
     inkscape:pageopacity="0.0"
     inkscape:pageshadow="2"
     inkscape:zoom="1.276"
     inkscape:cx="176.80252"
     inkscape:cy="250"
     inkscape:document-units="px"
     inkscape:current-layer="layer4"
     showgrid="false"
     inkscape:window-width="1440"
     inkscape:window-height="853"
     inkscape:window-x="-4"
     inkscape:window-y="-3"
     inkscape:window-maximized="1" />
  <metadata
     id="metadata7">
    <rdf:RDF>
      <cc:Work
         rdf:about="">
        <dc:format>image/svg+xml</dc:format>
        <dc:type
           rdf:resource="http://purl.org/dc/dcmitype/StillImage" />
        <dc:title />
      </cc:Work>
    </rdf:RDF>
  </metadata>
  <g
     inkscape:groupmode="layer"
     id="layer4"
     inkscape:label="Layer">
    <path
       sodipodi:type="star"
       style="fill:#d5e5ff;fill-rule:evenodd;stroke:#80b3ff"
       id="path3237"
       sodipodi:sides="6"
       sodipodi:cx="248.4326"
       sodipodi:cy="246.8652"
       sodipodi:r1="247.57449"
       sodipodi:r2="125.39932"
       sodipodi:arg1="-2.1166447"
       sodipodi:arg2="-1.5930459"
       inkscape:flatsided="false"
       inkscape:rounded="0.08"
       inkscape:randomized="0"
       d="m 119.90594,35.26646 c 10.42476,-6.332076 113.54267,86.50182 125.73681,86.23046 12.19414,-0.27136 111.08029,-97.600506 121.77641,-91.738438 10.69612,5.862068 -18.14144,141.581738 -11.80936,152.006498 6.33207,10.42476 140.06466,47.3981 140.33602,59.59225 0.27136,12.19414 -131.68411,55.07992 -137.54617,65.77603 -5.86207,10.69612 28.98437,144.99861 18.55961,151.33069 -10.42476,6.33207 -113.54266,-86.50182 -125.73681,-86.23046 -12.19414,0.27136 -111.08029,97.6005 -121.77641,91.73844 -10.69612,-5.86207 18.14144,-141.58174 11.80937,-152.0065 C 134.92333,301.54067 1.1907455,264.56733 0.9193862,252.37318 0.64802691,240.17904 132.60349,197.29326 138.46556,186.59714 144.32762,175.90103 109.48119,41.598536 119.90594,35.26646 z" />
  </g>
  <g
     transform="translate(0,-552.36218)"
     id="g3047"
     inkscape:groupmode="layer"
     inkscape:label="Layer 1 copy">
    <path
       sodipodi:type="star"
       style="fill:#0055d4;fill-rule:evenodd;stroke:#0044aa"
       id="path3038"
       sodipodi:sides="6"
       sodipodi:cx="264.10657"
       sodipodi:cy="246.0815"
       sodipodi:r1="301.2348"
       sodipodi:r2="298.53802"
       sodipodi:arg1="1.4550378"
       sodipodi:arg2="-0.44064396"
       inkscape:flatsided="false"
       inkscape:rounded="0.05"
       inkscape:randomized="0"
       d="M 298.89924,545.30027 C 318.93773,559.14425 556.46636,128.45248 534.1274,118.74846 506.75751,106.85901 24.785494,396.07925 22.371842,425.82222 20.40185,450.09805 512.15618,440.45799 509.39063,416.25988 506.00224,386.61213 14.544166,113.82224 -12.42083,126.60345 -34.429312,137.0353 219.79639,558.08701 239.36979,543.59292 263.35131,525.83461 253.86524,-36.175509 229.3139,-53.137279 209.27541,-66.981257 -28.253222,363.71052 -5.9142658,373.41453 21.45563,385.30398 503.42764,96.083744 505.84129,66.340772 507.81128,42.064941 16.056951,51.705004 18.822507,75.903114 22.210892,105.55086 513.66897,378.34075 540.63396,365.55955 562.64245,355.1277 308.41674,-65.924018 288.84334,-51.429922 264.86183,-33.671621 274.3479,528.3385 298.89924,545.30027 z"
       transform="matrix(0.79987876,0,0,0.79987876,38.746766,605.52682)" />
  </g>
  <g
     inkscape:label="Layer 1"
     inkscape:groupmode="layer"
     id="layer1"
     transform="translate(0,-552.36218)">
    <path
       sodipodi:type="star"
       style="fill:#5599ff;fill-rule:evenodd;stroke:#0044aa"
       id="path3040"
       sodipodi:sides="6"
       sodipodi:cx="253.9185"
       sodipodi:cy="250"
       sodipodi:r1="153.65891"
       sodipodi:r2="155.47839"
       sodipodi:arg1="-2.1979068"
       sodipodi:arg2="1.0889675"
       inkscape:flatsided="false"
       inkscape:rounded="0.2"
       inkscape:randomized="0"
       d="m 163.75031,125.57832 c -33.06477,52.05017 100.88627,268.60541 162.21697,262.19869 55.34564,-5.78151 46.2164,-275.72065 -9.38054,-278.0758 C 254.97758,107.09137 134.41077,331.374 170.6245,381.28458 203.30425,426.32455 432.51378,283.44883 406.75494,234.12289 378.21055,179.46288 123.69269,187.19026 98.575723,243.50756 75.909837,294.32905 314.24861,421.39246 344.0867,374.42168 377.15147,322.37151 243.20042,105.81627 181.86973,112.22299 c -55.34564,5.78151 -46.2164,275.72065 9.38053,278.0758 C 252.85942,392.90863 373.42624,168.626 337.21251,118.71542 304.53275,73.675449 75.323222,216.55117 101.08207,265.87711 129.62646,320.53712 384.14432,312.80974 409.26128,256.49244 431.92717,205.67095 193.5884,78.607536 163.75031,125.57832 z"
       transform="matrix(0.96603423,0,0,0.96603423,4.7060337,560.85362)" />
  </g>
</svg>
